<svg width="60" height="60" viewBox="0 0 60 60" fill="none" xmlns="http://www.w3.org/2000/svg">
<g id="loader_71">
<g id="loader_71_1">
<circle id="Ellipse 315" cx="30" cy="30" r="30" fill="none"/>
<path id="Ellipse 316" d="M39.5 30C39.5 38.2455 38.3852 45.6896 36.5967 51.0551C35.7016 53.7404 34.6468 55.8775 33.4997 57.333C32.3483 58.7941 31.1618 59.5 30 59.5C28.8382 59.5 27.6517 58.7941 26.5003 57.333C25.3532 55.8775 24.2984 53.7404 23.4033 51.0551C21.6148 45.6896 20.5 38.2455 20.5 30C20.5 21.7545 21.6148 14.3104 23.4033 8.94491C24.2984 6.25956 25.3532 4.12249 26.5003 2.66704C27.6517 1.20594 28.8382 0.5 30 0.5C31.1618 0.5 32.3483 1.20594 33.4997 2.66704C34.6468 4.12249 35.7016 6.25956 36.5967 8.94491C38.3852 14.3104 39.5 21.7545 39.5 30Z" stroke="#2B7EFF"/>
</g>
<g id="loader_71_2">
<circle id="Ellipse 315_2" cx="30" cy="30" r="30" fill="none"/>
<path id="Ellipse 316_2" d="M39.5 30C39.5 38.2455 38.3852 45.6896 36.5967 51.0551C35.7016 53.7404 34.6468 55.8775 33.4997 57.333C32.3483 58.7941 31.1618 59.5 30 59.5C28.8382 59.5 27.6517 58.7941 26.5003 57.333C25.3532 55.8775 24.2984 53.7404 23.4033 51.0551C21.6148 45.6896 20.5 38.2455 20.5 30C20.5 21.7545 21.6148 14.3104 23.4033 8.94491C24.2984 6.25956 25.3532 4.12249 26.5003 2.66704C27.6517 1.20594 28.8382 0.5 30 0.5C31.1618 0.5 32.3483 1.20594 33.4997 2.66704C34.6468 4.12249 35.7016 6.25956 36.5967 8.94491C38.3852 14.3104 39.5 21.7545 39.5 30Z" stroke="#2B7EFF"/>
</g>
<g id="loader_71_3">
<circle id="Ellipse 315_3" cx="30" cy="30" r="30" fill="none"/>
<path id="Ellipse 316_3" d="M39.5 30C39.5 38.2455 38.3852 45.6896 36.5967 51.0551C35.7016 53.7404 34.6468 55.8775 33.4997 57.333C32.3483 58.7941 31.1618 59.5 30 59.5C28.8382 59.5 27.6517 58.7941 26.5003 57.333C25.3532 55.8775 24.2984 53.7404 23.4033 51.0551C21.6148 45.6896 20.5 38.2455 20.5 30C20.5 21.7545 21.6148 14.3104 23.4033 8.94491C24.2984 6.25956 25.3532 4.12249 26.5003 2.66704C27.6517 1.20594 28.8382 0.5 30 0.5C31.1618 0.5 32.3483 1.20594 33.4997 2.66704C34.6468 4.12249 35.7016 6.25956 36.5967 8.94491C38.3852 14.3104 39.5 21.7545 39.5 30Z" stroke="#2B7EFF"/>
</g>
</g>
</svg>
