<svg width="126" height="36" viewBox="0 0 126 36" fill="none" xmlns="http://www.w3.org/2000/svg">
<path d="M30.4954 6.706H19.1014C18.7726 6.706 18.4914 6.49628 18.4056 6.19601L16.652 0.767216C16.5614 0.505071 16.3232 0.343018 16.0706 0.343018H12.8539C6.4159 0.343018 0.687894 5.05687 0.0540966 11.4437C-0.622589 18.8076 5.13877 24.9847 12.3107 24.9847H23.7143C24.0431 24.9847 24.3147 25.1944 24.41 25.4947L26.1542 30.9235C26.2495 31.1856 26.483 31.3477 26.7403 31.3477H29.9569C36.395 31.3477 42.123 26.6386 42.7568 20.247C43.4335 12.8831 37.6721 6.706 30.4954 6.706ZM34.5555 19.7132C34.2267 21.7198 32.3349 23.1449 30.3096 23.1449H24.3433C24.0145 23.1449 23.7429 22.9304 23.6476 22.6349L21.9273 17.2013C21.8319 16.9487 21.5984 16.7867 21.3411 16.7867H12.3202C9.85651 16.7867 7.87411 14.5656 8.26487 11.9823C8.59368 9.97567 10.476 8.55055 12.5108 8.55055H18.4723C18.8012 8.55055 19.0823 8.76504 19.1681 9.06055L20.8979 14.4941C20.9885 14.7562 21.2267 14.9088 21.4793 14.9088H30.5002C32.9734 14.9088 34.9558 17.1299 34.5603 19.7132H34.5555Z" fill="#EFEFEF"/>
<path d="M59.0495 12.8681C58.3871 13.5354 57.6151 14.0692 56.724 14.4505C55.8328 14.8366 54.8083 15.032 53.6598 15.032C52.6114 15.032 51.6488 14.8461 50.7625 14.4696C49.8761 14.093 49.1089 13.564 48.4465 12.8824C47.7841 12.2056 47.2789 11.4144 46.9263 10.5136C46.5689 9.61749 46.3926 8.64994 46.3926 7.62519C46.3926 6.60044 46.5689 5.62812 46.9263 4.72729C47.2837 3.82646 47.7888 3.04003 48.4465 2.37275C49.1089 1.69594 49.8809 1.17165 50.7625 0.785582C51.644 0.409046 52.6114 0.213623 53.6598 0.213623C54.8273 0.213623 55.8328 0.409046 56.6811 0.785582C57.5341 1.17165 58.2822 1.69117 58.9446 2.35368L57.3435 3.95515C56.9193 3.48806 56.3999 3.12583 55.7899 2.86368C55.1752 2.60153 54.4699 2.46808 53.6598 2.46808C52.9402 2.46808 52.2921 2.592 51.7012 2.83985C51.1151 3.09246 50.6004 3.4404 50.1715 3.90272C49.7331 4.36505 49.4091 4.91318 49.1708 5.54233C48.9421 6.17147 48.8229 6.86259 48.8229 7.62042C48.8229 8.37826 48.9421 9.06937 49.1708 9.69852C49.4091 10.3277 49.7331 10.871 50.1715 11.3334C50.6004 11.7957 51.1151 12.1484 51.7012 12.3962C52.2969 12.6393 52.9402 12.768 53.6598 12.768C54.5366 12.768 55.28 12.6345 55.8853 12.3676C56.5 12.1007 57.0194 11.729 57.4435 11.2666L59.0447 12.8681H59.0495Z" fill="#EFEFEF"/>
<path d="M60.2891 14.8231V0H62.5526V14.8231H60.2891ZM67.0607 14.8231V9.11789C67.0607 8.46015 66.851 7.91679 66.4316 7.49259C66.0123 7.06839 65.4738 6.85391 64.8162 6.85391C64.3778 6.85391 63.987 6.94924 63.6439 7.14465C63.3008 7.3353 63.0339 7.60221 62.8433 7.94538C62.6527 8.28856 62.5526 8.67939 62.5526 9.11789L61.6663 8.6222C61.6663 7.86912 61.833 7.19708 62.1619 6.6156C62.4907 6.03411 62.9481 5.57178 63.5295 5.23814C64.1109 4.9045 64.7685 4.73292 65.4929 4.73292C66.2172 4.73292 66.8939 4.89973 67.4705 5.22861C68.0471 5.55748 68.4998 6.01504 68.8286 6.59653C69.1575 7.17801 69.3242 7.85482 69.3242 8.6222V14.8184H67.0607V14.8231Z" fill="#EFEFEF"/>
<path d="M75.1904 15.0292C74.2993 15.0292 73.494 14.8004 72.7744 14.3476C72.0548 13.8948 71.483 13.28 71.0636 12.5031C70.6443 11.7309 70.4346 10.8587 70.4346 9.90066C70.4346 8.94264 70.6443 8.05135 71.0636 7.27445C71.483 6.49754 72.05 5.88269 72.7744 5.42036C73.494 4.95804 74.2993 4.72925 75.1904 4.72925C75.9434 4.72925 76.6153 4.8913 77.1967 5.21541C77.778 5.53475 78.2403 5.97802 78.5882 6.54521C78.9313 7.10763 79.1028 7.7463 79.1028 8.46125V11.302C79.1028 12.0169 78.936 12.6556 78.5977 13.218C78.2641 13.7804 77.8019 14.2237 77.2062 14.5478C76.6153 14.8671 75.9434 15.0339 75.1904 15.0339V15.0292ZM75.5621 12.8891C76.3961 12.8891 77.0728 12.6079 77.5874 12.0455C78.1021 11.4831 78.3594 10.7634 78.3594 9.8816C78.3594 9.29058 78.2403 8.77105 78.0116 8.31826C77.7781 7.86546 77.454 7.51276 77.0346 7.26015C76.6153 7.00754 76.1245 6.87884 75.5621 6.87884C74.9998 6.87884 74.528 7.00754 74.1135 7.26015C73.6941 7.51276 73.3653 7.86546 73.127 8.31826C72.8888 8.77105 72.7649 9.29535 72.7649 9.8816C72.7649 10.4679 72.884 10.9921 73.127 11.4449C73.3701 11.8977 73.6989 12.2504 74.1135 12.5031C74.528 12.7557 75.0141 12.8844 75.5621 12.8844V12.8891ZM78.2165 14.8242V12.1694L78.6072 9.76244L78.2165 7.37453V4.94374H80.48V14.8242H78.2165Z" fill="#EFEFEF"/>
<path d="M83.5676 3.12718C83.1864 3.12718 82.8671 2.99849 82.6098 2.73635C82.3572 2.4742 82.2285 2.15486 82.2285 1.76879C82.2285 1.38272 82.3572 1.06338 82.6098 0.801239C82.8623 0.539093 83.1816 0.4104 83.5676 0.4104C83.9536 0.4104 84.2872 0.539093 84.535 0.801239C84.7828 1.06338 84.9019 1.38272 84.9019 1.76879C84.9019 2.15486 84.778 2.4742 84.535 2.73635C84.2872 2.99849 83.9631 3.12718 83.5676 3.12718ZM82.4382 14.8236V4.94314H84.7018V14.8236H82.4382Z" fill="#EFEFEF"/>
<path d="M86.6553 14.8221V4.94165H88.9188V14.8221H86.6553ZM93.4269 14.8221V9.11691C93.4269 8.45916 93.2172 7.9158 92.7979 7.49161C92.3785 7.06741 91.84 6.85293 91.1824 6.85293C90.744 6.85293 90.3532 6.94825 90.0101 7.14367C89.667 7.33432 89.4001 7.60123 89.2095 7.9444C89.0189 8.28757 88.9188 8.67841 88.9188 9.11691L88.0325 8.62121C88.0325 7.86814 88.1993 7.1961 88.5281 6.61461C88.8569 6.03313 89.3144 5.5708 89.8957 5.23716C90.4771 4.90352 91.1348 4.73193 91.8591 4.73193C92.5834 4.73193 93.2601 4.92259 93.8367 5.29912C94.4133 5.68042 94.8661 6.16658 95.1949 6.76237C95.5237 7.35815 95.6905 7.97777 95.6905 8.62598V14.8221H93.4269Z" fill="#EFEFEF"/>
<path d="M43.7001 31.881L49.6282 17.4678H51.2723L57.1576 31.881H54.6033L49.9904 20.2084H50.8577L46.2067 31.881H43.6953H43.7001ZM46.626 29.1023V27.0432H54.2602V29.1023H46.626Z" fill="#EFEFEF"/>
<path d="M58.335 31.8807V22.0002H60.5985V31.8807H58.335ZM65.1066 31.8807V26.1755C65.1066 25.5178 64.8969 24.9744 64.4775 24.5502C64.0582 24.126 63.5197 23.9115 62.8621 23.9115C62.4237 23.9115 62.0329 24.0068 61.6898 24.2023C61.3467 24.3929 61.0798 24.6598 60.8892 25.003C60.6986 25.3462 60.5985 25.737 60.5985 26.1755L59.7122 25.6798C59.7122 24.9267 59.8789 24.2547 60.2078 23.6732C60.5366 23.0917 60.994 22.6294 61.5754 22.2958C62.1568 21.9621 62.8144 21.7905 63.5388 21.7905C64.2631 21.7905 64.9398 21.9812 65.5164 22.3577C66.093 22.739 66.5457 23.2252 66.8745 23.821C67.2034 24.4168 67.3701 25.0364 67.3701 25.6846V31.8807H65.1066Z" fill="#EFEFEF"/>
<path d="M73.4365 32.0878C72.5454 32.0878 71.74 31.859 71.0205 31.4062C70.3009 30.9534 69.7291 30.3385 69.3097 29.5616C68.8903 28.7895 68.6807 27.9173 68.6807 26.9592C68.6807 26.0012 68.8903 25.1099 69.3097 24.333C69.7291 23.5561 70.2961 22.9413 71.0205 22.479C71.74 22.0166 72.5454 21.7878 73.4365 21.7878C74.1895 21.7878 74.8614 21.9499 75.4428 22.274C76.0241 22.5933 76.4864 23.0366 76.8343 23.6038C77.1774 24.1662 77.3489 24.8049 77.3489 25.5198V28.3605C77.3489 29.0755 77.1821 29.7142 76.8438 30.2766C76.5102 30.839 76.048 31.2823 75.4523 31.6064C74.8614 31.9257 74.1895 32.0925 73.4365 32.0925V32.0878ZM73.8082 29.9477C74.6422 29.9477 75.3189 29.6665 75.8335 29.1041C76.3482 28.5417 76.6055 27.8219 76.6055 26.9402C76.6055 26.3492 76.4864 25.8296 76.2576 25.3768C76.0241 24.9241 75.7001 24.5713 75.2807 24.3187C74.8614 24.0661 74.3706 23.9374 73.8082 23.9374C73.2459 23.9374 72.7741 24.0661 72.3595 24.3187C71.9402 24.5713 71.6114 24.9241 71.3731 25.3768C71.1348 25.8296 71.0109 26.3539 71.0109 26.9402C71.0109 27.5264 71.1301 28.0507 71.3731 28.5035C71.6161 28.9563 71.945 29.309 72.3595 29.5616C72.7741 29.8143 73.2602 29.9429 73.8082 29.9429V29.9477ZM76.4626 31.8828V29.228L76.8533 26.821L76.4626 24.4331V22.0023H78.7261V31.8828H76.4626Z" fill="#EFEFEF"/>
<path d="M80.1172 24.0609V22.0019H87.1176V24.0609H80.1172ZM82.4856 31.8823V17.8838H84.7492V31.8823H82.4856Z" fill="#EFEFEF"/>
<path d="M92.4263 32.0878C91.4637 32.0878 90.5964 31.859 89.8101 31.3967C89.0238 30.9343 88.4091 30.3147 87.9468 29.533C87.4846 28.7514 87.2559 27.8791 87.2559 26.9164C87.2559 25.9536 87.4846 25.0909 87.9468 24.3235C88.4043 23.5561 89.0286 22.9413 89.8101 22.479C90.5916 22.0166 91.4637 21.7878 92.4263 21.7878C93.3889 21.7878 94.2801 22.0119 95.0616 22.4647C95.8431 22.9174 96.4626 23.5323 96.9248 24.3092C97.3871 25.0813 97.6158 25.9536 97.6158 26.9116C97.6158 27.8696 97.3871 28.7418 96.9248 29.5283C96.4626 30.3147 95.8431 30.9296 95.0616 31.3919C94.2801 31.8542 93.3985 32.083 92.4263 32.083V32.0878ZM92.4263 29.9048C92.9886 29.9048 93.4842 29.7761 93.9179 29.5235C94.3515 29.2709 94.6851 28.9182 94.9281 28.4654C95.1712 28.0126 95.2903 27.4978 95.2903 26.9211C95.2903 26.3444 95.1664 25.8392 94.9186 25.4007C94.6708 24.9622 94.3372 24.6142 93.9083 24.3616C93.4795 24.109 92.9886 23.9803 92.4263 23.9803C91.864 23.9803 91.3874 24.109 90.9538 24.3616C90.5201 24.6142 90.1818 24.9622 89.9435 25.4007C89.7053 25.8392 89.5861 26.3492 89.5861 26.9211C89.5861 27.4931 89.7053 28.0126 89.9435 28.4654C90.1818 28.9182 90.5201 29.2709 90.9538 29.5235C91.3827 29.7761 91.8783 29.9048 92.4263 29.9048Z" fill="#EFEFEF"/>
<path d="M98.9121 31.8807V22.0002H101.176V31.8807H98.9121ZM105.479 31.8807V25.9944C105.479 25.3366 105.274 24.8219 104.859 24.4596C104.445 24.0974 103.94 23.9115 103.334 23.9115C102.925 23.9115 102.558 23.9925 102.234 24.1594C101.914 24.3262 101.652 24.5597 101.462 24.8695C101.271 25.1794 101.171 25.5511 101.171 25.9896L100.285 25.4939C100.285 24.7409 100.451 24.0879 100.78 23.5398C101.109 22.9916 101.557 22.5627 102.119 22.2529C102.682 21.943 103.315 21.7905 104.016 21.7905C104.716 21.7905 105.345 21.943 105.908 22.2433C106.47 22.5436 106.918 22.9726 107.247 23.5207C107.576 24.0688 107.742 24.7313 107.742 25.4987V31.8807H105.479ZM112.046 31.8807V25.9944C112.046 25.3366 111.841 24.8219 111.426 24.4596C111.011 24.0974 110.506 23.9115 109.906 23.9115C109.506 23.9115 109.143 23.9925 108.815 24.1594C108.486 24.3262 108.224 24.5597 108.033 24.8695C107.842 25.1794 107.747 25.5511 107.747 25.9896L106.47 25.4939C106.537 24.7409 106.756 24.0879 107.128 23.5398C107.499 22.9916 107.976 22.5627 108.557 22.2529C109.139 21.943 109.782 21.7905 110.482 21.7905C111.183 21.7905 111.841 21.943 112.417 22.2433C112.994 22.5436 113.451 22.9726 113.794 23.5207C114.138 24.0688 114.309 24.7313 114.309 25.4987V31.8807H112.046Z" fill="#EFEFEF"/>
<path d="M119.251 31.9868L115.033 22.0015H117.526L120.409 29.332H119.689L122.734 22.0015H125.245L120.656 31.9868H119.255H119.251ZM116.306 36L119.374 29.6799L120.652 31.9868L118.822 36H116.31H116.306Z" fill="#EFEFEF"/>
</svg>
