<svg width="72" height="72" viewBox="0 0 72 72" fill="none" xmlns="http://www.w3.org/2000/svg">
<path d="M71.5737 35.9286C71.5737 35.9286 55.6153 57.3126 35.9294 57.3126C16.2436 57.3126 0.285156 35.9286 0.285156 35.9286C0.285156 35.9286 16.2436 14.5446 35.9294 14.5446C55.6153 14.5446 71.5737 35.9286 71.5737 35.9286Z" fill="#43C6AC"/>
<path d="M36.0004 55.0086C46.3737 55.0086 54.783 46.4984 54.783 36.0006C54.783 25.5027 46.3737 16.9926 36.0004 16.9926C25.627 16.9926 17.2178 25.5027 17.2178 36.0006C17.2178 46.4984 25.627 55.0086 36.0004 55.0086Z" fill="#7D70FF"/>
<path d="M36.0996 47C41.8986 47 46.5996 42.0751 46.5996 36C46.5996 29.9249 41.8986 25 36.0996 25C30.3006 25 25.5996 29.9249 25.5996 36C25.5996 42.0751 30.3006 47 36.0996 47Z" fill="#1C1C1E"/>
</svg>
