<svg width="72" height="72" viewBox="0 0 72 72" fill="none" xmlns="http://www.w3.org/2000/svg">
<g clip-path="url(#clip0_346_6363)">
<path fill-rule="evenodd" clip-rule="evenodd" d="M49.7306 2.59112L58.4135 7.54495L54.3681 19.3275C56.8823 22.0287 58.7178 25.2191 59.8029 28.6348L72.1764 31.0708L72.1821 40.9687L59.8142 43.3902C59.2768 45.0783 58.5457 46.7344 57.6133 48.3303C56.6809 49.9262 55.595 51.38 54.3841 52.6838L58.446 64.4793L49.7689 69.4232L41.4472 60.0517C37.9112 60.8309 34.1978 60.8553 30.5735 60.0542L22.27 69.4078L13.5872 64.454L17.6308 52.6772C15.1111 49.9745 13.2715 46.7811 12.184 43.3614L-0.175765 40.9282L-0.181523 31.0305L12.1665 28.6127C12.7042 26.9202 13.4367 25.2593 14.3714 23.6595C15.3062 22.0594 16.3954 20.6023 17.6098 19.2959L13.5546 7.51989L22.2317 2.5758L30.5438 11.9363C34.0845 11.1571 37.8031 11.1347 41.4317 11.9398L49.7306 2.59112ZM44.5402 40.8714C41.8181 45.5305 35.7846 47.124 31.0638 44.4306C26.3428 41.7371 24.7226 35.777 27.4446 31.1178C30.1666 26.459 36.2001 24.8655 40.9211 27.5589C45.6419 30.2523 47.2622 36.2125 44.5402 40.8714Z" fill="#7D70FF"/>
<path fill-rule="evenodd" clip-rule="evenodd" d="M30.9874 0.283447H41.0135L43.4718 12.4863C47.0159 13.5833 50.2197 15.4393 52.8878 17.8613L64.836 13.8572L69.8491 22.4263L60.3634 30.6343C60.7521 32.3617 60.9569 34.1572 60.9569 36C60.9569 37.8428 60.7521 39.6382 60.3631 41.3657L69.8491 49.574L64.836 58.1428L52.8875 54.1386C50.2195 56.5605 47.0159 58.4164 43.4718 59.5134L41.0135 71.7165H30.9874L28.5305 59.5196C24.9808 58.424 21.7719 56.5673 19.0999 54.1431L7.16486 58.1428L2.15186 49.574L11.6222 41.379C11.2315 39.6476 11.0255 37.8473 11.0255 36C11.0255 34.1524 11.2315 32.3524 11.6222 30.621L2.15191 22.4263L7.16492 13.8572L19.0996 17.8567C21.7717 15.4325 24.9807 13.5758 28.5305 12.4801L30.9874 0.283447ZM45.8613 35.9997C45.8613 41.3796 41.4423 45.7407 35.9913 45.7407C30.5399 45.7407 26.121 41.3796 26.121 35.9997C26.121 30.6201 30.5399 26.2589 35.9913 26.2589C41.4423 26.2589 45.8613 30.6201 45.8613 35.9997Z" fill="#43C6AC"/>
</g>
<defs>
<clipPath id="clip0_346_6363">
<rect width="72" height="72" fill="white"/>
</clipPath>
</defs>
</svg>
